***************************************************************
 
http://www.torrentforce.org/imghost/3/greyshadow_tfbanner.png

***************************************************************
 
http://pix2links.com/images/92376255475286608289.jpg

***************************************************************

FILM TITLE: Green Lantern (2011)

***************************************************************

Genre: Action | Adventure | Fantasy    

Rated PG-13 for intense sequences of sci-fi violence and action

Release: 17 June 2011 (UK)

Director: Martin Campbell

Writer: Greg Berlanti (screenplay), Michael Green

Stars: Ryan Reynolds, Blake Lively and Peter Sarsgaard

Country: USA

Language: English

Plot:
A test pilot is granted a mystical green ring that bestows him 
with otherworldly powers, as well as membership into an 
intergalactic squadron tasked with keeping peace within the universe.

IMDB Rating: Ratings: 6.1/10 from 33,384 users 
 
http://www.imdb.com/title/tt1133985/ 

****************************************************************
 
http://pix2links.com/images/88372360979457380953.png 
http://pix2links.com/images/61054860540280901839.png 
http://pix2links.com/images/34412217636817819839.png 
http://pix2links.com/images/68548358469583441813.png

****************************************************************

[IMG]http://www.torrentforce.org/imghost/2/greyshadow_mediainfo.png[/IMG]
General
Complete name                    : Green Lantern 2011 720p BDRip XviD ac3 (avi) [TFRG].avi
Format                           : AVI
Format/Info                      : Audio Video Interleave
Format profile                   : OpenDML
File size                        : 2.87 GiB
Duration                         : 2h 3mn
Overall bit rate                 : 3328 Kbps
Writing library                  : VirtualDub build 32842/release

Video
ID                               : 0
Format                           : MPEG-4 Visual
Format profile                   : Simple@L5
Format settings, BVOP            : No
Format settings, QPel            : No
Format settings, GMC             : No warppoints
Format settings, Matrix          : Default (H.263)
Codec ID                         : XVID
Codec ID/Hint                    : XviD
Duration                         : 2h 3mn
Bit rate                         : 2997 Kbps
Width                            : 1280 pixels
Height                           : 528 pixels
Display aspect ratio             : 2.40:1
Frame rate                       : 23.976 fps
Color space                      : YUV
Chroma subsampling               : 4:2:0
Bit depth                        : 8 bits
Scan type                        : Progressive
Compression mode                 : Lossy
Bits/(Pixel*Frame)               : 0.185
Stream size                      : 2.59 GiB (90%)
Writing library                  : XviD 64

Audio
ID                               : 1
Format                           : AC-3
Format/Info                      : Audio Coding 3
Mode extension                   : CM (complete main)
Codec ID                         : 2000
Duration                         : 2h 3mn
Bit rate mode                    : Constant
Bit rate                         : 320 Kbps
Channel(s)                       : 6 channels
Channel positions                : Front: L C R, Side: L R, LFE
Sampling rate                    : 48.0 KHz
Bit depth                        : 16 bits
Compression mode                 : Lossy
Stream size                      : 283 MiB (10%)
Alignment                        : Aligned on interleaves
Interleave, duration             : 42 ms (1.00 video frame)
Interleave, preload duration     : 512 ms

****************************************************************

Video Source: Green Lantern 2011 EXTENDED 2in1 BluRay 1080p AVC DTS-HD MA5.1-CHDBits (43.2GB) 

Thanks: CHP (chdbits.org) 

****************************************************************

I provide a small sample, so please download this to check your 
compatibility first if you are unsure.

****************************************************************

A big thanks to all the sites out there who care and share and
who make it possible for you to download this torrent for free.

Greetz to Westy, Ripwyn, mustang, noir, Blackjesus, MXMG, The Stig 
and all the other outstanding members of our community of file 
sharers and a special mention to our friends at 1337x.

****************************************************************

[img]http://pix2links.com/images/09980640269521448035.png[/img]

****************************************************************